<svg width="16" height="16" viewBox="0 0 16 16" fill="none" xmlns="http://www.w3.org/2000/svg">
<path d="M7.31718 1.9715C7.70153 1.61229 8.29848 1.61229 8.68282 1.97151L10.3305 3.51142C10.442 3.61567 10.5759 3.69299 10.722 3.73747L12.8794 4.39441C13.3827 4.54766 13.6812 5.06463 13.5622 5.57709L13.0525 7.77395C13.0179 7.92268 13.0179 8.07732 13.0525 8.22604L13.5622 10.4229C13.6812 10.9354 13.3827 11.4523 12.8794 11.6056L10.722 12.2625C10.5759 12.307 10.442 12.3843 10.3305 12.4886L8.68282 14.0285C8.29847 14.3877 7.70153 14.3877 7.31718 14.0285L5.66954 12.4886C5.558 12.3843 5.42407 12.307 5.27802 12.2625L3.12058 11.6056C2.61732 11.4523 2.31885 10.9354 2.43776 10.4229L2.94755 8.22604C2.98206 8.07732 2.98206 7.92268 2.94755 7.77395L2.43776 5.57709C2.31885 5.06463 2.61732 4.54766 3.12058 4.39441L5.27802 3.73747C5.42407 3.69299 5.558 3.61567 5.66954 3.51142L7.31718 1.9715Z" stroke="#8B7D6F" stroke-width="1.5"/>
</svg>
