<svg width="20" height="20" viewBox="0 0 20 20" fill="none" xmlns="http://www.w3.org/2000/svg">
<path d="M13.3333 10.75V14.25C13.3333 17.1667 12.1666 18.3333 9.24996 18.3333H5.74996C2.83329 18.3333 1.66663 17.1667 1.66663 14.25V10.75C1.66663 7.83333 2.83329 6.66667 5.74996 6.66667H9.24996C12.1666 6.66667 13.3333 7.83333 13.3333 10.75Z" fill="white"/>
<path d="M14.25 1.66667H10.75C8.2466 1.66667 7.03846 2.53232 6.746 4.61575C6.66858 5.16725 7.13004 5.625 7.68695 5.625H9.25005C12.75 5.625 14.375 7.25 14.375 10.75V12.3131C14.375 12.87 14.8328 13.3315 15.3843 13.2541C17.4677 12.9616 18.3334 11.7535 18.3334 9.25V5.75C18.3334 2.83333 17.1667 1.66667 14.25 1.66667Z" fill="white"/>
</svg>
