<svg width="20" height="20" viewBox="0 0 20 20" fill="none" xmlns="http://www.w3.org/2000/svg">
<path d="M6.45837 2.91667V1.66667C6.45837 1.325 6.17504 1.04167 5.83337 1.04167C5.49171 1.04167 5.20837 1.325 5.20837 1.66667V2.96667C5.41671 2.94167 5.60837 2.91667 5.83337 2.91667H6.45837Z" fill="white"/>
<path d="M13.125 2.96667V1.66667C13.125 1.325 12.8417 1.04167 12.5 1.04167C12.1583 1.04167 11.875 1.325 11.875 1.66667V2.91667H12.5C12.725 2.91667 12.9167 2.94167 13.125 2.96667Z" fill="white"/>
<path d="M17.7416 12.475C17.1 11.9667 16.2916 11.6667 15.4166 11.6667C14.5416 11.6667 13.7166 11.975 13.075 12.4917C12.2083 13.175 11.6666 14.2417 11.6666 15.4167C11.6666 16.1167 11.8666 16.7917 12.2083 17.3417C12.475 17.775 12.8166 18.1583 13.225 18.45C13.8416 18.9 14.5916 19.1667 15.4166 19.1667C16.3666 19.1667 17.225 18.8167 17.8833 18.2333C18.175 17.9917 18.425 17.6917 18.625 17.35C18.9666 16.7917 19.1666 16.1167 19.1666 15.4167C19.1666 14.225 18.6083 13.1583 17.7416 12.475ZM15.4166 17.2C15.4166 16.2167 14.6166 15.4167 13.6333 15.4167C14.6166 15.4167 15.4166 14.6167 15.4166 13.6333C15.4166 14.6167 16.2166 15.4167 17.2 15.4167C16.2166 15.4167 15.4166 16.2167 15.4166 17.2Z" fill="white"/>
<path d="M13.125 2.96667V4.16667C13.125 4.50833 12.8416 4.79167 12.5 4.79167C12.1583 4.79167 11.875 4.50833 11.875 4.16667V2.91667H6.45829V4.16667C6.45829 4.50833 6.17496 4.79167 5.83329 4.79167C5.49163 4.79167 5.20829 4.50833 5.20829 4.16667V2.96667C2.74996 3.19167 1.66663 4.775 1.66663 7.08333V14.1667C1.66663 16.6667 2.91663 18.3333 5.83329 18.3333H9.27496C9.90829 18.3333 10.3333 17.625 10.175 17.0083C10.0583 16.5583 9.99996 16.0917 9.99996 15.625C9.99996 13.8917 10.775 12.2917 12.1166 11.2333C13.0916 10.4417 14.3416 10 15.625 10H15.6583C16.1833 10 16.6666 9.61667 16.6666 9.09167V7.08333C16.6666 4.775 15.5833 3.19167 13.125 2.96667ZM7.49996 13.9583H5.83329C5.49163 13.9583 5.20829 13.675 5.20829 13.3333C5.20829 12.9917 5.49163 12.7083 5.83329 12.7083H7.49996C7.84163 12.7083 8.12496 12.9917 8.12496 13.3333C8.12496 13.675 7.84163 13.9583 7.49996 13.9583ZM9.99996 9.79167H5.83329C5.49163 9.79167 5.20829 9.50834 5.20829 9.16667C5.20829 8.825 5.49163 8.54167 5.83329 8.54167H9.99996C10.3416 8.54167 10.625 8.825 10.625 9.16667C10.625 9.50834 10.3416 9.79167 9.99996 9.79167Z" fill="white"/>
</svg>
