<svg width="24" height="24" viewBox="0 0 24 24" fill="none" xmlns="http://www.w3.org/2000/svg">
<path opacity="0.4" d="M20.4 16.33C20.12 17.08 19.53 17.65 18.76 17.91C17.68 18.27 16.57 18.54 15.45 18.73C15.34 18.75 15.23 18.77 15.12 18.78C14.94 18.81 14.76 18.83 14.58 18.85C14.36 18.88 14.13 18.9 13.9 18.92C13.27 18.97 12.65 19 12.02 19C11.38 19 10.74 18.97 10.11 18.91C9.83999 18.89 9.57999 18.86 9.31999 18.82C9.16999 18.8 9.01999 18.78 8.87999 18.76C8.76999 18.74 8.65999 18.73 8.54999 18.71C7.43999 18.53 6.33999 18.26 5.26999 17.9C4.46999 17.63 3.85999 17.06 3.58999 16.33C3.31999 15.61 3.41999 14.77 3.84999 14.05L4.97999 12.17C5.21999 11.76 5.43999 10.97 5.43999 10.49V8.63C5.43999 5 8.38999 2.05 12.02 2.05C15.64 2.05 18.59 5 18.59 8.63V10.49C18.59 10.97 18.81 11.76 19.06 12.17L20.19 14.05C20.6 14.75 20.68 15.57 20.4 16.33Z" fill="#895737"/>
<path d="M12 10.76C11.58 10.76 11.24 10.42 11.24 10V6.9C11.24 6.48 11.58 6.14 12 6.14C12.42 6.14 12.76 6.48 12.76 6.9V10C12.75 10.42 12.41 10.76 12 10.76Z" fill="#895737"/>
<path d="M14.83 20.01C14.41 21.17 13.3 22 12 22C11.21 22 10.43 21.68 9.87999 21.11C9.55999 20.81 9.31999 20.41 9.17999 20C9.30999 20.02 9.43999 20.03 9.57999 20.05C9.80999 20.08 10.05 20.11 10.29 20.13C10.86 20.18 11.44 20.21 12.02 20.21C12.59 20.21 13.16 20.18 13.72 20.13C13.93 20.11 14.14 20.1 14.34 20.07C14.5 20.05 14.66 20.03 14.83 20.01Z" fill="#895737"/>
</svg>
