<svg width="20" height="20" viewBox="0 0 20 20" fill="none" xmlns="http://www.w3.org/2000/svg">
<path d="M16.9667 10.6083C16.6584 10.6083 16.4 10.375 16.3667 10.0667C16.1667 8.23333 15.1834 6.58333 13.6667 5.53333C13.3917 5.34167 13.325 4.96667 13.5167 4.69167C13.7084 4.41667 14.0834 4.35 14.3584 4.54167C16.1667 5.8 17.3334 7.76667 17.575 9.94167C17.6084 10.275 17.3667 10.575 17.0334 10.6083C17.0084 10.6083 16.9917 10.6083 16.9667 10.6083Z" fill="white"/>
<path d="M3.11662 10.65C3.09996 10.65 3.07496 10.65 3.05829 10.65C2.72496 10.6167 2.48329 10.3167 2.51662 9.98333C2.74162 7.80833 3.89162 5.84167 5.68329 4.575C5.94996 4.38333 6.33329 4.45 6.52496 4.71667C6.71662 4.99167 6.64996 5.36667 6.38329 5.55833C4.88329 6.625 3.90829 8.275 3.72496 10.1C3.69162 10.4167 3.42496 10.65 3.11662 10.65Z" fill="white"/>
<path d="M13.325 17.5833C12.3 18.075 11.2 18.325 10.05 18.325C8.84996 18.325 7.70829 18.0583 6.64163 17.5167C6.34163 17.375 6.22496 17.0083 6.37496 16.7083C6.51663 16.4083 6.88329 16.2917 7.1833 16.4333C7.70829 16.7 8.26663 16.8833 8.8333 16.9917C9.59996 17.1417 10.3833 17.15 11.15 17.0167C11.7166 16.9167 12.275 16.7417 12.7916 16.4917C13.1 16.35 13.4666 16.4667 13.6 16.775C13.75 17.075 13.6333 17.4417 13.325 17.5833Z" fill="white"/>
<path d="M10.0417 1.675C8.74998 1.675 7.69165 2.725 7.69165 4.025C7.69165 5.325 8.74165 6.375 10.0417 6.375C11.3417 6.375 12.3917 5.325 12.3917 4.025C12.3917 2.725 11.3417 1.675 10.0417 1.675Z" fill="white"/>
<path d="M4.20828 11.5583C2.91661 11.5583 1.85828 12.6083 1.85828 13.9083C1.85828 15.2083 2.90828 16.2583 4.20828 16.2583C5.50828 16.2583 6.55828 15.2083 6.55828 13.9083C6.55828 12.6083 5.49994 11.5583 4.20828 11.5583Z" fill="white"/>
<path d="M15.7917 11.5583C14.5 11.5583 13.4417 12.6083 13.4417 13.9083C13.4417 15.2083 14.4917 16.2583 15.7917 16.2583C17.0917 16.2583 18.1417 15.2083 18.1417 13.9083C18.1417 12.6083 17.0917 11.5583 15.7917 11.5583Z" fill="white"/>
</svg>
