<svg width="16" height="16" viewBox="0 0 16 16" fill="none" xmlns="http://www.w3.org/2000/svg">
<path d="M6.7 1.68667L2.68666 4.30667C1.4 5.14667 1.4 7.02667 2.68666 7.86667L6.7 10.4867C7.42 10.96 8.60666 10.96 9.32666 10.4867L13.32 7.86667C14.6 7.02667 14.6 5.15333 13.32 4.31333L9.32666 1.69333C8.60666 1.21333 7.42 1.21333 6.7 1.68667Z" stroke="#8B7D6F" stroke-width="1.5" stroke-linecap="round" stroke-linejoin="round"/>
<path d="M3.75333 8.72L3.74667 11.8467C3.74667 12.6933 4.4 13.6 5.2 13.8667L7.32667 14.5733C7.69333 14.6933 8.3 14.6933 8.67333 14.5733L10.8 13.8667C11.6 13.6 12.2533 12.6933 12.2533 11.8467V8.75333" stroke="#8B7D6F" stroke-width="1.5" stroke-linecap="round" stroke-linejoin="round"/>
<path d="M14.2667 10V6" stroke="#8B7D6F" stroke-width="1.5" stroke-linecap="round" stroke-linejoin="round"/>
</svg>
