<svg width="16" height="16" viewBox="0 0 16 16" fill="none" xmlns="http://www.w3.org/2000/svg">
<path d="M1.33334 6.66667V9.33334C1.33334 10.6667 2 11.3333 3.33334 11.3333H4.28667C4.53334 11.3333 4.78 11.4067 4.99334 11.5333L6.94 12.7533C8.62 13.8067 10 13.04 10 11.06V4.94C10 2.95334 8.62 2.19334 6.94 3.24667L4.99334 4.46667C4.78 4.59334 4.53334 4.66667 4.28667 4.66667H3.33334C2 4.66667 1.33334 5.33334 1.33334 6.66667Z" stroke="#8B7D6F" stroke-width="1.5"/>
<path d="M12 5.33334C13.1867 6.91334 13.1867 9.08667 12 10.6667" stroke="#8B7D6F" stroke-width="1.5" stroke-linecap="round" stroke-linejoin="round"/>
<path d="M13.22 3.66666C15.1467 6.23333 15.1467 9.76666 13.22 12.3333" stroke="#8B7D6F" stroke-width="1.5" stroke-linecap="round" stroke-linejoin="round"/>
</svg>
